<?xml version="1.0" encoding="UTF-8" standalone="no"?>
<svg
   xmlns:dc="http://purl.org/dc/elements/1.1/"
   xmlns:cc="http://creativecommons.org/ns#"
   xmlns:rdf="http://www.w3.org/1999/02/22-rdf-syntax-ns#"
   xmlns:svg="http://www.w3.org/2000/svg"
   xmlns="http://www.w3.org/2000/svg"
   xml:space="preserve"
   enable-background="new 0 0 200 200"
   viewBox="0 0 200 200"
   y="0px"
   x="0px"
   id="Layer_1"
   version="1.1"><metadata
     id="metadata3343"><rdf:RDF><cc:Work
         rdf:about=""><dc:format>image/svg+xml</dc:format><dc:type
           rdf:resource="http://purl.org/dc/dcmitype/StillImage" /><dc:title></dc:title></cc:Work></rdf:RDF></metadata><defs
     id="defs3341" /><ellipse
     ry="100"
     rx="100"
     cy="100"
     cx="100"
     id="path3380"
     style="fill:#1773b2;fill-opacity:1;stroke:#ffffff;stroke-width:1;stroke-opacity:1" /><path
     style="fill:#ffffff;fill-opacity:1"
     id="path3337"
     d="M136.7,66.4c0.1-4-0.9-8-3.2-11.6c-1-1.6-2.2-3-3.5-4.2c-2.9,0.9-5.7,2.4-8.2,4.7c-5.5,5.1-7.7,13-5.8,20.3  c1.1,4.2,3.3,7.4,6,10c0,0.2,0,1.1,0,1.8c0,0.4-0.2,0.9-0.6,1.1c-4.9,3-12,3.4-18.7,4.2c-13.8,1.7-25.6,10.1-32.3,22.3  c0.4-0.9,0.8-1.8,1.2-2.7c4.7-9.6,11.8-15.7,15.2-18.2c0.3-0.2,1.7-1.3,1.7-1.3c8.4-6.8,13.7-17.3,13.3-29  c-0.6-18.1-15.2-33.2-33.3-34.3C47.8,28,30.6,44.4,30.6,64.8c0,5.5,1.3,10.7,3.5,15.4c0.2,0.3,0.7,0.2,0.6-0.2  c-0.2-1.3-0.2-2.6-0.1-4c0.8-6.9,6.4-12.4,13.2-13.1C56.8,62,64.3,69,64.3,77.7c0,3.4-1.2,6.6-3.1,9.1c-5.5,6.2-13.9,16.6-17,29.1  c-7.5,30.9,16.9,44.2,29.6,43.5c0.8,0,1.3-0.9,1-1.6c-1.1-2.5-1.8-5-2.2-7.7c0.9,3,2.3,5.9,4.2,8.5c0,0,8.1,12.3,26.9,12.3h42.3h1.1  h4.6c0.2,0,0.3-0.1,0.3-0.3v-4.6c0-2.7-2.2-4.9-4.9-4.9c-0.1,0-0.2,0-0.2,0c-1.6,0-17.3,0-19.1,0c-2.3,0.1-4.2,0.2-2.8-1.8  c0.1-0.1,0.2-0.2,0.3-0.4c9.8-13.3,7-32-6.3-41.7c-1.3-1-2.7-1.8-4.2-2.6c3,1,6,2.5,8.7,4.6c9.2,6.8,13.7,17.5,13,28.1  c0,0.5,0.6,0.6,0.8,0.2c3.1-6.3,4.8-13.5,4.8-21c0-9.1-2.1-15.4-2.7-17.6c-0.1-0.2,0.1-0.3,0.3-0.2c5.1,2.8,11,4.4,17.3,4.4  c3.3,0,6.5-0.5,9.5-1.3c0.8-3,1.3-6.2,1.3-9.5C167.6,83.9,154.2,68.9,136.7,66.4z M156.3,90c-0.1,0.8-0.5,1.5-1,2.1  c-0.1-1.6-1.4-2.9-3-2.9c-1.6,0-3,1.3-3,3c0,0.5,0.1,1,0.4,1.4c-2.2-0.8-3.6-3.1-3.1-5.6c0.4-1.9,1.9-3.5,3.9-3.9  C154,83.6,157,86.5,156.3,90z"
     fill="#1773B2" /></svg>
